<svg width="20" height="20" viewBox="0 0 20 20" fill="none" xmlns="http://www.w3.org/2000/svg">
<rect x="1" y="1" width="18" height="18" rx="7" fill="white"/>
<path d="M10 0C4.489 0 0 4.489 0 10C0 15.511 4.489 20 10 20C15.511 20 20 15.511 20 10C20 4.489 15.511 0 10 0ZM10 2C14.4301 2 18 5.56988 18 10C18 14.4301 14.4301 18 10 18C5.56988 18 2 14.4301 2 10C2 5.56988 5.56988 2 10 2ZM8.68945 6C7.14945 6 5.69613 6.17162 4.32812 6.51562C3.98612 6.60063 3.72852 6.85614 3.72852 7.36914C3.72852 7.88214 4.07098 8.31061 4.58398 8.22461C4.83998 8.22461 4.92666 8.13867 5.09766 8.13867C6.20966 7.88167 7.49245 7.71094 8.68945 7.71094C11.0845 7.71094 13.5644 8.309 15.2754 9.25C15.5314 9.335 15.6161 9.42188 15.7871 9.42188C16.3011 9.42188 16.6435 9.07941 16.7285 8.56641C16.7285 8.13941 16.4738 7.88194 16.2168 7.71094C14.0788 6.59894 11.3405 6 8.68945 6ZM8.51953 8.99414C7.06553 8.99414 6.03967 9.25081 5.01367 9.50781C4.58567 9.67881 4.41406 9.84934 4.41406 10.2773C4.41406 10.6193 4.66966 10.9609 5.09766 10.9609C5.26866 10.9609 5.35439 10.961 5.52539 10.875C6.29539 10.704 7.32159 10.5332 8.43359 10.5332C10.6566 10.5332 12.7101 11.0453 14.1641 11.9863C14.3351 12.0713 14.5067 12.1582 14.6777 12.1582C15.1047 12.1582 15.3603 11.8157 15.4473 11.3887C15.4473 11.1327 15.2765 10.8761 15.0195 10.7051C13.1375 9.59308 10.9145 8.99414 8.51953 8.99414ZM8.77539 12.0078C7.57839 12.0078 6.46552 12.1785 5.35352 12.4355C5.01152 12.4355 4.8418 12.6912 4.8418 13.0332C4.8418 13.3752 5.09745 13.6328 5.43945 13.6328C5.52545 13.6328 5.69619 13.5469 5.86719 13.5469C6.72219 13.3759 7.74845 13.2051 8.68945 13.2051C10.3995 13.2051 12.0256 13.6323 13.3086 14.4023C13.4796 14.4873 13.5653 14.5723 13.7363 14.5723C13.9923 14.5723 14.2489 14.4026 14.4199 13.9746C14.4199 13.6326 14.2491 13.546 14.0781 13.375C12.5381 12.52 10.7424 12.0078 8.77539 12.0078Z" fill="black"/>
</svg>
